<?xml version="1.0" encoding="UTF-8"?>
<!DOCTYPE svg PUBLIC "-//W3C//DTD SVG 1.1//EN" "http://www.w3.org/Graphics/SVG/1.1/DTD/svg11.dtd">
<!-- Creator: CorelDRAW -->
<svg xmlns="http://www.w3.org/2000/svg" xml:space="preserve" width="250px" height="250px" version="1.1" style="shape-rendering:geometricPrecision; text-rendering:geometricPrecision; image-rendering:optimizeQuality; fill-rule:evenodd; clip-rule:evenodd"
viewBox="0 0 250 250"
 xmlns:xlink="http://www.w3.org/1999/xlink"
 xmlns:xodm="http://www.corel.com/coreldraw/odm/2003">
 <defs>
  <style type="text/css">
   <![CDATA[
    .fil0 {fill:url(#id0)}
    .fil6 {fill:url(#id1)}
    .fil4 {fill:url(#id2)}
    .fil2 {fill:url(#id3)}
    .fil7 {fill:url(#id4)}
    .fil5 {fill:url(#id5)}
    .fil1 {fill:url(#id6)}
    .fil3 {fill:url(#id7)}
   ]]>
  </style>
  <linearGradient id="id0" gradientUnits="userSpaceOnUse" x1="45.27" y1="-61.54" x2="204.73" y2="311.54">
   <stop offset="0" style="stop-opacity:1; stop-color:#FAB1A0"/>
   <stop offset="1" style="stop-opacity:1; stop-color:#E17055"/>
  </linearGradient>
  <linearGradient id="id1" gradientUnits="userSpaceOnUse" x1="92.61" y1="62.52" x2="92.71" y2="70.06">
   <stop offset="0" style="stop-opacity:1; stop-color:#7F8FA6"/>
   <stop offset="1" style="stop-opacity:1; stop-color:#718093"/>
  </linearGradient>
  <linearGradient id="id2" gradientUnits="userSpaceOnUse" xlink:href="#id1" x1="120.92" y1="152.98" x2="127.66" y2="185.9">
  </linearGradient>
  <linearGradient id="id3" gradientUnits="userSpaceOnUse" x1="172.51" y1="170.5" x2="189.55" y2="187.54">
   <stop offset="0" style="stop-opacity:1; stop-color:#353B48"/>
   <stop offset="1" style="stop-opacity:1; stop-color:#2F3640"/>
  </linearGradient>
  <linearGradient id="id4" gradientUnits="userSpaceOnUse" xlink:href="#id1" x1="79.77" y1="60.34" x2="86.58" y2="67.16">
  </linearGradient>
  <linearGradient id="id5" gradientUnits="userSpaceOnUse" xlink:href="#id1" x1="73.7" y1="122.41" x2="80.34" y2="123.9">
  </linearGradient>
  <linearGradient id="id6" gradientUnits="userSpaceOnUse" xlink:href="#id3" x1="53.53" y1="170.5" x2="70.57" y2="187.54">
  </linearGradient>
  <linearGradient id="id7" gradientUnits="userSpaceOnUse" xlink:href="#id1" x1="163.3" y1="163.01" x2="188.85" y2="178.33">
  </linearGradient>
 </defs>
 <g id="Слой_x0020_1">
  <metadata id="CorelCorpID_0Corel-Layer"/>
  <g id="_2257053462064">
   <path class="fil0" d="M125 0c69.04,0 125,55.96 125,125 0,69.04 -55.96,125 -125,125 -69.04,0 -125,-55.96 -125,-125 0,-69.04 55.96,-125 125,-125z"/>
   <path class="fil1" d="M62.05 166.97c6.65,0 12.05,5.39 12.05,12.05 0,6.65 -5.4,12.05 -12.05,12.05 -6.65,0 -12.05,-5.4 -12.05,-12.05 0,-6.66 5.4,-12.05 12.05,-12.05z"/>
   <path class="fil2" d="M181.03 166.97c6.66,0 12.05,5.39 12.05,12.05 0,6.65 -5.39,12.05 -12.05,12.05 -6.65,0 -12.05,-5.4 -12.05,-12.05 0,-6.66 5.4,-12.05 12.05,-12.05z"/>
   <path class="fil3" d="M159.23 178.03c0.08,-1.57 0.32,-3.12 0.72,-4.62l0.01 -0.01c1.44,-5.37 4.92,-10.18 10.09,-13.17 5.18,-2.98 11.09,-3.59 16.45,-2.16l0.01 0.01c5.37,1.44 10.18,4.92 13.17,10.09 0.66,1.15 0.27,2.63 -0.89,3.29 -1.15,0.67 -2.62,0.27 -3.29,-0.88 -2.33,-4.04 -6.07,-6.75 -10.23,-7.86l-0.01 -0.01c-4.16,-1.11 -8.76,-0.63 -12.8,1.7 -4.04,2.33 -6.75,6.07 -7.86,10.23l-0.01 0.01c-0.29,1.1 -0.48,2.23 -0.54,3.38l-4.82 0z"/>
   <path class="fil4" d="M181.03 176.47c1.41,0 2.55,1.14 2.55,2.55 0,1.41 -1.14,2.55 -2.55,2.55l-93.96 0c-0.76,0 -1.45,-0.34 -1.92,-0.87l-19.39 -19.04c-1,-0.98 -1.01,-2.59 -0.03,-3.59 0.98,-1 2.59,-1.01 3.59,-0.03l18.78 18.43 92.93 0z"/>
   <path class="fil5" d="M60.09 177.02l29.2 -108.98c0.2,-0.75 0.99,-1.2 1.74,-1l1.91 0.51c0.76,0.2 1.21,0.99 1.01,1.74l-29.21 108.98c-0.2,0.76 -0.98,1.21 -1.74,1.01l-1.9 -0.52c-0.76,-0.2 -1.21,-0.98 -1.01,-1.74z"/>
   <path class="fil6" d="M85.75 61.57l15.25 4.09c1.03,0.27 1.64,1.33 1.37,2.36l-0.44 1.63c-0.27,1.02 -1.34,1.64 -2.36,1.36l-15.25 -4.08c-1.02,-0.28 -1.64,-1.34 -1.36,-2.37l0.43 -1.63c0.28,-1.02 1.34,-1.63 2.36,-1.36z"/>
   <path class="fil7" d="M83.18 58.93c2.66,0 4.82,2.16 4.82,4.82 0,2.66 -2.16,4.82 -4.82,4.82 -2.67,0 -4.82,-2.16 -4.82,-4.82 0,-2.66 2.15,-4.82 4.82,-4.82z"/>
  </g>
 </g>
</svg>
