<?xml version="1.0" encoding="UTF-8"?>
<!DOCTYPE svg PUBLIC "-//W3C//DTD SVG 1.1//EN" "http://www.w3.org/Graphics/SVG/1.1/DTD/svg11.dtd">
<!-- Creator: CorelDRAW -->
<svg xmlns="http://www.w3.org/2000/svg" xml:space="preserve" width="250px" height="250px" version="1.1" style="shape-rendering:geometricPrecision; text-rendering:geometricPrecision; image-rendering:optimizeQuality; fill-rule:evenodd; clip-rule:evenodd"
viewBox="0 0 250 250"
 xmlns:xlink="http://www.w3.org/1999/xlink"
 xmlns:xodm="http://www.corel.com/coreldraw/odm/2003">
 <defs>
  <style type="text/css">
   <![CDATA[
    .fil0 {fill:url(#id0)}
    .fil2 {fill:url(#id1)}
    .fil3 {fill:url(#id2)}
    .fil1 {fill:url(#id3)}
   ]]>
  </style>
  <linearGradient id="id0" gradientUnits="userSpaceOnUse" x1="45.27" y1="-61.54" x2="204.73" y2="311.54">
   <stop offset="0" style="stop-opacity:1; stop-color:#A29BFE"/>
   <stop offset="1" style="stop-opacity:1; stop-color:#6C5CE7"/>
  </linearGradient>
  <linearGradient id="id1" gradientUnits="userSpaceOnUse" x1="161.23" y1="65.83" x2="161.23" y2="111.52">
   <stop offset="0" style="stop-opacity:1; stop-color:#F5F6FA"/>
   <stop offset="1" style="stop-opacity:1; stop-color:#DCDDE1"/>
  </linearGradient>
  <linearGradient id="id2" gradientUnits="userSpaceOnUse" x1="82.53" y1="136.75" x2="83.55" y2="197.18">
   <stop offset="0" style="stop-opacity:1; stop-color:#FBC531"/>
   <stop offset="1" style="stop-opacity:1; stop-color:#E1B12C"/>
  </linearGradient>
  <linearGradient id="id3" gradientUnits="userSpaceOnUse" x1="142.97" y1="37.26" x2="147.06" y2="172.71">
   <stop offset="0" style="stop-opacity:1; stop-color:#E84118"/>
   <stop offset="1" style="stop-opacity:1; stop-color:#C23616"/>
  </linearGradient>
 </defs>
 <g id="Слой_x0020_1">
  <metadata id="CorelCorpID_0Corel-Layer"/>
  <g id="_2256795398032">
   <path class="fil0" d="M125 0c69.04,0 125,55.96 125,125 0,69.04 -55.96,125 -125,125 -69.04,0 -125,-55.96 -125,-125 0,-69.04 55.96,-125 125,-125z"/>
   <path class="fil1" d="M85.78 106.8c3.73,-10.04 11.48,-25.08 24.45,-37.83 0.68,-0.68 1.83,-2.33 0.61,-2.33 -5.88,0 -10.65,0 -14.29,0 -4.61,0.21 -7.85,1.38 -9.72,3.51l-32.49 32.49c-3.21,3.21 -6.88,6.99 -1.89,6.99 19.94,0 29.91,0 29.91,0 2.52,0.03 2.82,-1.19 3.42,-2.83zm57.42 57.42c10.04,-3.73 25.08,-11.48 37.83,-24.45 0.68,-0.68 2.33,-1.83 2.33,-0.61 0,5.88 0,10.65 0,14.29 -0.21,4.61 -1.38,7.85 -3.51,9.72l-32.49 32.49c-3.21,3.21 -6.99,6.88 -6.99,1.89 0,-19.94 0,-29.91 0,-29.91 -0.03,-2.52 1.19,-2.82 2.83,-3.42zm51.24 -108.66c12.85,12.85 2.54,54.34 -21.84,76.42 -14.53,13.17 -28.77,21.86 -39.62,24.14 -11.26,-1.91 -37.19,-27.84 -39.1,-39.1 2.28,-10.85 10.97,-25.09 24.14,-39.62 22.08,-24.38 63.57,-34.69 76.42,-21.84z"/>
   <path class="fil2" d="M177.39 72.52c8.92,8.92 8.92,23.39 0,32.31 -8.93,8.92 -23.39,8.92 -32.31,0 -8.93,-8.92 -8.93,-23.39 0,-32.31 8.92,-8.92 23.38,-8.92 32.31,0z"/>
   <path class="fil3" d="M124.47 164.92c-21.7,31.4 -43.85,34.2 -35.54,16.48 -31.35,15.23 -35.56,11.02 -20.33,-20.33 -17.72,8.31 -14.92,-13.84 16.48,-35.54 7.6,15.07 24.32,31.79 39.39,39.39z"/>
  </g>
 </g>
</svg>
