<?xml version="1.0" encoding="UTF-8"?>
<!DOCTYPE svg PUBLIC "-//W3C//DTD SVG 1.1//EN" "http://www.w3.org/Graphics/SVG/1.1/DTD/svg11.dtd">
<!-- Creator: CorelDRAW -->
<svg xmlns="http://www.w3.org/2000/svg" xml:space="preserve" width="250px" height="250px" version="1.1" style="shape-rendering:geometricPrecision; text-rendering:geometricPrecision; image-rendering:optimizeQuality; fill-rule:evenodd; clip-rule:evenodd"
viewBox="0 0 250 250"
 xmlns:xlink="http://www.w3.org/1999/xlink"
 xmlns:xodm="http://www.corel.com/coreldraw/odm/2003">
 <defs>
  <style type="text/css">
   <![CDATA[
    .fil3 {fill:url(#id0)}
    .fil5 {fill:url(#id1)}
    .fil1 {fill:url(#id2)}
    .fil7 {fill:url(#id3)}
    .fil9 {fill:url(#id4)}
    .fil2 {fill:url(#id5)}
    .fil4 {fill:url(#id6)}
    .fil6 {fill:url(#id7)}
    .fil8 {fill:url(#id8)}
    .fil0 {fill:url(#id9)}
   ]]>
  </style>
  <linearGradient id="id0" gradientUnits="objectBoundingBox" x1="14.6447%" y1="14.6447%" x2="85.3553%" y2="85.3553%">
   <stop offset="0" style="stop-opacity:1; stop-color:#7F8FA6"/>
   <stop offset="1" style="stop-opacity:1; stop-color:#718093"/>
  </linearGradient>
  <linearGradient id="id1" gradientUnits="objectBoundingBox" x1="14.6447%" y1="14.6447%" x2="85.3553%" y2="85.3553%">
   <stop offset="0" style="stop-opacity:1; stop-color:#E84118"/>
   <stop offset="1" style="stop-opacity:1; stop-color:#C23616"/>
  </linearGradient>
  <linearGradient id="id2" gradientUnits="userSpaceOnUse" x1="92.36" y1="71.05" x2="157.64" y2="168.95">
   <stop offset="0" style="stop-opacity:1; stop-color:#F5F6FA"/>
   <stop offset="1" style="stop-opacity:1; stop-color:#DCDDE1"/>
  </linearGradient>
  <linearGradient id="id3" gradientUnits="userSpaceOnUse" x1="74.34" y1="67.17" x2="85.66" y2="72.83">
   <stop offset="0" style="stop-opacity:1; stop-color:#273C75"/>
   <stop offset="1" style="stop-opacity:1; stop-color:#192A56"/>
  </linearGradient>
  <linearGradient id="id4" gradientUnits="objectBoundingBox" xlink:href="#id0" x1="47.2801%" y1="0%" x2="52.7199%" y2="117.99%">
  </linearGradient>
  <linearGradient id="id5" gradientUnits="userSpaceOnUse" xlink:href="#id0" x1="75.64" y1="89.4" x2="94.36" y2="120.6">
  </linearGradient>
  <linearGradient id="id6" gradientUnits="objectBoundingBox" xlink:href="#id0" x1="14.6447%" y1="14.6447%" x2="85.3553%" y2="85.3553%">
  </linearGradient>
  <linearGradient id="id7" gradientUnits="userSpaceOnUse" xlink:href="#id1" x1="141.46" y1="131.46" x2="148.54" y2="138.53">
  </linearGradient>
  <linearGradient id="id8" gradientUnits="userSpaceOnUse" xlink:href="#id3" x1="164.34" y1="67.17" x2="175.66" y2="72.83">
  </linearGradient>
  <linearGradient id="id9" gradientUnits="userSpaceOnUse" x1="45.27" y1="-61.54" x2="204.73" y2="311.54">
   <stop offset="0" style="stop-opacity:1; stop-color:#FF7675"/>
   <stop offset="1" style="stop-opacity:1; stop-color:#D63031"/>
  </linearGradient>
 </defs>
 <g id="Слой_x0020_1">
  <metadata id="CorelCorpID_0Corel-Layer"/>
  <g id="_2257045203600">
   <path class="fil0" d="M125 0c69.04,0 125,55.96 125,125 0,69.04 -55.96,125 -125,125 -69.04,0 -125,-55.96 -125,-125 0,-69.04 55.96,-125 125,-125z"/>
   <path class="fil1" d="M61.11 70l127.78 0c6.11,0 11.11,5 11.11,11.11l0 77.78c0,6.11 -5,11.11 -11.11,11.11l-127.78 0c-6.11,0 -11.11,-5 -11.11,-11.11l0 -77.78c0,-6.11 5,-11.11 11.11,-11.11z"/>
   <path class="fil2" d="M63 90l44 0c1.65,0 3,1.35 3,3l0 24c0,1.65 -1.35,3 -3,3l-44 0c-1.65,0 -3,-1.35 -3,-3l0 -24c0,-1.65 1.35,-3 3,-3z"/>
   <path class="fil3" d="M123 90l4 0c1.65,0 3,1.35 3,3l0 4c0,1.65 -1.35,3 -3,3l-4 0c-1.65,0 -3,-1.35 -3,-3l0 -4c0,-1.65 1.35,-3 3,-3z"/>
   <path class="fil4" d="M143 90l4 0c1.65,0 3,1.35 3,3l0 4c0,1.65 -1.35,3 -3,3l-4 0c-1.65,0 -3,-1.35 -3,-3l0 -4c0,-1.65 1.35,-3 3,-3z"/>
   <path class="fil3" d="M163 90l4 0c1.65,0 3,1.35 3,3l0 4c0,1.65 -1.35,3 -3,3l-4 0c-1.65,0 -3,-1.35 -3,-3l0 -4c0,-1.65 1.35,-3 3,-3z"/>
   <path class="fil5" d="M183 90l4 0c1.65,0 3,1.35 3,3l0 4c0,1.65 -1.35,3 -3,3l-4 0c-1.65,0 -3,-1.35 -3,-3l0 -4c0,-1.65 1.35,-3 3,-3z"/>
   <path class="fil3" d="M123 110l4 0c1.65,0 3,1.35 3,3l0 4c0,1.65 -1.35,3 -3,3l-4 0c-1.65,0 -3,-1.35 -3,-3l0 -4c0,-1.65 1.35,-3 3,-3z"/>
   <path class="fil4" d="M143 110l4 0c1.65,0 3,1.35 3,3l0 4c0,1.65 -1.35,3 -3,3l-4 0c-1.65,0 -3,-1.35 -3,-3l0 -4c0,-1.65 1.35,-3 3,-3z"/>
   <path class="fil3" d="M163 110l4 0c1.65,0 3,1.35 3,3l0 4c0,1.65 -1.35,3 -3,3l-4 0c-1.65,0 -3,-1.35 -3,-3l0 -4c0,-1.65 1.35,-3 3,-3z"/>
   <path class="fil5" d="M183 110l4 0c1.65,0 3,1.35 3,3l0 4c0,1.65 -1.35,3 -3,3l-4 0c-1.65,0 -3,-1.35 -3,-3l0 -4c0,-1.65 1.35,-3 3,-3z"/>
   <path class="fil3" d="M123 130l4 0c1.65,0 3,1.35 3,3l0 4c0,1.65 -1.35,3 -3,3l-4 0c-1.65,0 -3,-1.35 -3,-3l0 -4c0,-1.65 1.35,-3 3,-3z"/>
   <path class="fil6" d="M143 130l4 0c1.65,0 3,1.35 3,3l0 4c0,1.65 -1.35,3 -3,3l-4 0c-1.65,0 -3,-1.35 -3,-3l0 -4c0,-1.65 1.35,-3 3,-3z"/>
   <path class="fil3" d="M163 130l4 0c1.65,0 3,1.35 3,3l0 4c0,1.65 -1.35,3 -3,3l-4 0c-1.65,0 -3,-1.35 -3,-3l0 -4c0,-1.65 1.35,-3 3,-3z"/>
   <path class="fil5" d="M183 130l4 0c1.65,0 3,1.35 3,3l0 4c0,1.65 -1.35,3 -3,3l-4 0c-1.65,0 -3,-1.35 -3,-3l0 -4c0,-1.65 1.35,-3 3,-3z"/>
   <path class="fil3" d="M123 150l4 0c1.65,0 3,1.35 3,3l0 4c0,1.65 -1.35,3 -3,3l-4 0c-1.65,0 -3,-1.35 -3,-3l0 -4c0,-1.65 1.35,-3 3,-3z"/>
   <path class="fil4" d="M143 150l4 0c1.65,0 3,1.35 3,3l0 4c0,1.65 -1.35,3 -3,3l-4 0c-1.65,0 -3,-1.35 -3,-3l0 -4c0,-1.65 1.35,-3 3,-3z"/>
   <path class="fil3" d="M163 150l4 0c1.65,0 3,1.35 3,3l0 4c0,1.65 -1.35,3 -3,3l-4 0c-1.65,0 -3,-1.35 -3,-3l0 -4c0,-1.65 1.35,-3 3,-3z"/>
   <path class="fil5" d="M183 150l4 0c1.65,0 3,1.35 3,3l0 4c0,1.65 -1.35,3 -3,3l-4 0c-1.65,0 -3,-1.35 -3,-3l0 -4c0,-1.65 1.35,-3 3,-3z"/>
   <path class="fil7" d="M77 60l6 0c1.1,0 2,0.9 2,2l0 16c0,1.1 -0.9,2 -2,2l-6 0c-1.1,0 -2,-0.9 -2,-2l0 -16c0,-1.1 0.9,-2 2,-2z"/>
   <path class="fil8" d="M167 60l6 0c1.1,0 2,0.9 2,2l0 16c0,1.1 -0.9,2 -2,2l-6 0c-1.1,0 -2,-0.9 -2,-2l0 -16c0,-1.1 0.9,-2 2,-2z"/>
   <path class="fil9" d="M63 130l44 0c1.65,0 3,1.35 3,3l0 4c0,1.65 -1.35,3 -3,3l-44 0c-1.65,0 -3,-1.35 -3,-3l0 -4c0,-1.65 1.35,-3 3,-3z"/>
   <path class="fil9" d="M63 150l44 0c1.65,0 3,1.35 3,3l0 4c0,1.65 -1.35,3 -3,3l-44 0c-1.65,0 -3,-1.35 -3,-3l0 -4c0,-1.65 1.35,-3 3,-3z"/>
  </g>
 </g>
</svg>
