<?xml version="1.0" encoding="UTF-8"?>
<!DOCTYPE svg PUBLIC "-//W3C//DTD SVG 1.1//EN" "http://www.w3.org/Graphics/SVG/1.1/DTD/svg11.dtd">
<!-- Creator: CorelDRAW -->
<svg xmlns="http://www.w3.org/2000/svg" xml:space="preserve" width="250px" height="250px" version="1.1" style="shape-rendering:geometricPrecision; text-rendering:geometricPrecision; image-rendering:optimizeQuality; fill-rule:evenodd; clip-rule:evenodd"
viewBox="0 0 250 250"
 xmlns:xlink="http://www.w3.org/1999/xlink"
 xmlns:xodm="http://www.corel.com/coreldraw/odm/2003">
 <defs>
  <style type="text/css">
   <![CDATA[
    .fil2 {fill:url(#id0)}
    .fil0 {fill:url(#id1)}
    .fil1 {fill:url(#id2)}
   ]]>
  </style>
  <linearGradient id="id0" gradientUnits="objectBoundingBox" x1="43.3899%" y1="0%" x2="56.6101%" y2="114.101%">
   <stop offset="0" style="stop-opacity:1; stop-color:#273C75"/>
   <stop offset="1" style="stop-opacity:1; stop-color:#192A56"/>
  </linearGradient>
  <linearGradient id="id1" gradientUnits="userSpaceOnUse" x1="45.27" y1="-61.54" x2="204.73" y2="311.54">
   <stop offset="0" style="stop-opacity:1; stop-color:#55EFC4"/>
   <stop offset="1" style="stop-opacity:1; stop-color:#00B894"/>
  </linearGradient>
  <linearGradient id="id2" gradientUnits="userSpaceOnUse" x1="82.28" y1="93.93" x2="167.72" y2="156.07">
   <stop offset="0" style="stop-opacity:1; stop-color:#F5F6FA"/>
   <stop offset="1" style="stop-opacity:1; stop-color:#DCDDE1"/>
  </linearGradient>
 </defs>
 <g id="Слой_x0020_1">
  <metadata id="CorelCorpID_0Corel-Layer"/>
  <g id="_2256970733584">
   <path class="fil0" d="M125 0c69.04,0 125,55.96 125,125 0,69.04 -55.96,125 -125,125 -69.04,0 -125,-55.96 -125,-125 0,-69.04 55.96,-125 125,-125z"/>
   <path class="fil1" d="M88.81 61.49l72.38 0c5.5,0 10,4.5 10,10l0 107.02c0,5.5 -4.5,10 -10,10l-72.38 0c-5.5,0 -10,-4.5 -10,-10l0 -107.02c0,-5.5 4.5,-10 10,-10z"/>
   <path class="fil2" d="M140.68 157.25c-1.11,0 -2,-0.9 -2,-2.01 0,-1.1 0.89,-2 2,-2l17.32 0c1.1,0 2,0.9 2,2 0,1.11 -0.9,2.01 -2,2.01l-17.32 0zm-48.68 -18.48c-1.1,0 -2,-0.9 -2,-2 0,-1.11 0.9,-2 2,-2l27.89 0c1.1,0 2,0.89 2,2 0,1.1 -0.9,2 -2,2l-27.89 0zm36.24 0c-1.1,0 -2,-0.9 -2,-2 0,-1.11 0.9,-2 2,-2l13.69 0c1.11,0 2,0.89 2,2 0,1.1 -0.89,2 -2,2l-13.69 0zm22.04 0c-1.1,0 -2,-0.9 -2,-2 0,-1.11 0.9,-2 2,-2l7.72 0c1.1,0 2,0.89 2,2 0,1.1 -0.9,2 -2,2l-7.72 0zm-33.78 9.23c-1.11,0 -2,-0.89 -2,-2 0,-1.1 0.89,-2 2,-2l17.32 0c1.1,0 2,0.9 2,2 0,1.11 -0.9,2 -2,2l-17.32 0zm-24.5 0c-1.1,0 -2,-0.89 -2,-2 0,-1.1 0.9,-2 2,-2l7.72 0c1.1,0 2,0.9 2,2 0,1.11 -0.9,2 -2,2l-7.72 0zm48.68 0c-1.11,0 -2,-0.89 -2,-2 0,-1.1 0.89,-2 2,-2l17.32 0c1.1,0 2,0.9 2,2 0,1.11 -0.9,2 -2,2l-17.32 0zm-34.1 0c-1.11,0 -2,-0.89 -2,-2 0,-1.1 0.89,-2 2,-2l3.06 0c1.1,0 2,0.9 2,2 0,1.11 -0.9,2 -2,2l-3.06 0zm-14.58 9.25c-1.1,0 -2,-0.9 -2,-2.01 0,-1.1 0.9,-2 2,-2l17.32 0c1.11,0 2,0.9 2,2 0,1.11 -0.89,2.01 -2,2.01l-17.32 0zm24.34 0c-1.1,0 -2,-0.9 -2,-2.01 0,-1.1 0.9,-2 2,-2l17.32 0c1.11,0 2,0.9 2,2 0,1.11 -0.89,2.01 -2,2.01l-17.32 0z"/>
   <path class="fil2" d="M117.35 105.54c-0.78,-0.78 -0.78,-2.04 0,-2.82 0.79,-0.78 2.05,-0.78 2.83,0l5.52 5.51 12.44 -12.44c0.78,-0.78 2.05,-0.78 2.83,0 0.78,0.78 0.78,2.04 0,2.83l-13.86 13.85c-0.78,0.78 -2.05,0.78 -2.83,0l-6.93 -6.93zm4.65 -12.79c1.1,0 2,0.9 2,2 0,1.11 -0.9,2.01 -2,2.01l-9.55 0 0 19.09 9.55 0c1.1,0 2,0.89 2,2 0,1.1 -0.9,2 -2,2l-11.55 0c-1.11,0 -2,-0.9 -2,-2l0 -23.1c0,-1.1 0.89,-2 2,-2l11.55 0z"/>
  </g>
 </g>
</svg>
