<?xml version="1.0" encoding="UTF-8"?>
<!DOCTYPE svg PUBLIC "-//W3C//DTD SVG 1.1//EN" "http://www.w3.org/Graphics/SVG/1.1/DTD/svg11.dtd">
<!-- Creator: CorelDRAW -->
<svg xmlns="http://www.w3.org/2000/svg" xml:space="preserve" width="250px" height="250px" version="1.1" style="shape-rendering:geometricPrecision; text-rendering:geometricPrecision; image-rendering:optimizeQuality; fill-rule:evenodd; clip-rule:evenodd"
viewBox="0 0 250 250"
 xmlns:xlink="http://www.w3.org/1999/xlink"
 xmlns:xodm="http://www.corel.com/coreldraw/odm/2003">
 <defs>
  <style type="text/css">
   <![CDATA[
    .fil1 {fill:url(#id0)}
    .fil0 {fill:url(#id1)}
   ]]>
  </style>
  <linearGradient id="id0" gradientUnits="userSpaceOnUse" x1="111.2" y1="89.32" x2="138.8" y2="160.68">
   <stop offset="0" style="stop-opacity:1; stop-color:#F5F6FA"/>
   <stop offset="1" style="stop-opacity:1; stop-color:#DCDDE1"/>
  </linearGradient>
  <linearGradient id="id1" gradientUnits="userSpaceOnUse" x1="45.27" y1="-61.54" x2="204.73" y2="311.54">
   <stop offset="0" style="stop-opacity:1; stop-color:#FAB1A0"/>
   <stop offset="1" style="stop-opacity:1; stop-color:#E17055"/>
  </linearGradient>
 </defs>
 <g id="Слой_x0020_1">
  <metadata id="CorelCorpID_0Corel-Layer"/>
  <g id="_2220883007808">
   <path class="fil0" d="M125 0c69.04,0 125,55.96 125,125 0,69.04 -55.96,125 -125,125 -69.04,0 -125,-55.96 -125,-125 0,-69.04 55.96,-125 125,-125z"/>
   <path class="fil1" d="M58 149.88c0,2.21 -1.79,4 -4,4 -2.21,0 -4,-1.79 -4,-4l0 -49.88c0,-2.21 1.79,-4 4,-4 1.84,0 3.39,1.24 3.86,2.93l14.9 39.73 15.03 -39.95c0.78,-2.06 3.08,-3.1 5.14,-2.32 1.6,0.6 2.59,2.12 2.59,3.73l0.01 49.88c0,2.21 -1.8,4 -4,4 -2.21,0 -4.01,-1.79 -4.01,-4l0 -27.91 -11.02 29.32c-0.4,1.03 -1.22,1.91 -2.35,2.32 -2.06,0.77 -4.35,-0.28 -5.12,-2.34l-11.03 -29.39 0 27.88zm134 -49.88c0,-2.21 1.79,-4 4,-4 2.21,0 4,1.79 4,4l0 49.88c0,2.21 -1.79,4 -4,4 -2.21,0 -4,-1.79 -4,-4l0 -49.88zm-22.32 0.12c0,-2.21 1.8,-4 4,-4 2.21,0 4,1.79 4,4l0 31.12c0,6.25 -2.56,11.94 -6.68,16.06l-0.01 0.02c-4.13,4.12 -9.81,6.68 -16.07,6.68 -6.26,0 -11.95,-2.56 -16.08,-6.68l-0.22 -0.25c-3.99,-4.11 -6.46,-9.7 -6.46,-15.83l0 -31.12c0,-2.21 1.79,-4 4,-4 2.21,0 4,1.79 4,4l0 31.12c0,3.98 1.58,7.59 4.15,10.24l0.19 0.18c2.67,2.68 6.36,4.34 10.42,4.34 4.07,0 7.76,-1.66 10.43,-4.33 2.68,-2.68 4.33,-6.37 4.33,-10.43l0 -31.12zm-59.84 0c0,-2.21 1.79,-4 4,-4 2.21,0 4,1.79 4,4l0 49.88c0,2.21 -1.79,4 -4,4 -2.21,0 -4,-1.79 -4,-4l0 -49.88z"/>
  </g>
 </g>
</svg>
