<?xml version="1.0" encoding="UTF-8"?>
<!DOCTYPE svg PUBLIC "-//W3C//DTD SVG 1.1//EN" "http://www.w3.org/Graphics/SVG/1.1/DTD/svg11.dtd">
<!-- Creator: CorelDRAW -->
<svg xmlns="http://www.w3.org/2000/svg" xml:space="preserve" width="250px" height="250px" version="1.1" style="shape-rendering:geometricPrecision; text-rendering:geometricPrecision; image-rendering:optimizeQuality; fill-rule:evenodd; clip-rule:evenodd"
viewBox="0 0 250 250"
 xmlns:xlink="http://www.w3.org/1999/xlink"
 xmlns:xodm="http://www.corel.com/coreldraw/odm/2003">
 <defs>
  <style type="text/css">
   <![CDATA[
    .fil7 {fill:url(#id0)}
    .fil0 {fill:url(#id1)}
    .fil5 {fill:url(#id2)}
    .fil6 {fill:url(#id3)}
    .fil1 {fill:url(#id4)}
    .fil3 {fill:url(#id5)}
    .fil4 {fill:url(#id6)}
    .fil2 {fill:url(#id7)}
   ]]>
  </style>
  <linearGradient id="id0" gradientUnits="userSpaceOnUse" x1="116.96" y1="122.07" x2="140.76" y2="144.66">
   <stop offset="0" style="stop-opacity:1; stop-color:#487EB0"/>
   <stop offset="1" style="stop-opacity:1; stop-color:#40739E"/>
  </linearGradient>
  <linearGradient id="id1" gradientUnits="userSpaceOnUse" x1="45.27" y1="-61.54" x2="204.73" y2="311.54">
   <stop offset="0" style="stop-opacity:1; stop-color:#FD79A8"/>
   <stop offset="1" style="stop-opacity:1; stop-color:#E84393"/>
  </linearGradient>
  <linearGradient id="id2" gradientUnits="userSpaceOnUse" x1="106.67" y1="108.96" x2="155.67" y2="157.95">
   <stop offset="0" style="stop-opacity:1; stop-color:#273C75"/>
   <stop offset="1" style="stop-opacity:1; stop-color:#192A56"/>
  </linearGradient>
  <linearGradient id="id3" gradientUnits="userSpaceOnUse" x1="110.76" y1="113.04" x2="151.58" y2="153.87">
   <stop offset="0" style="stop-opacity:1; stop-color:#F5F6FA"/>
   <stop offset="1" style="stop-opacity:1; stop-color:#DCDDE1"/>
  </linearGradient>
  <linearGradient id="id4" gradientUnits="userSpaceOnUse" xlink:href="#id3" x1="56.69" y1="82.44" x2="142.14" y2="144.58">
  </linearGradient>
  <linearGradient id="id5" gradientUnits="objectBoundingBox" x1="30.0757%" y1="13.4245%" x2="89.9234%" y2="66.9936%">
   <stop offset="0" style="stop-opacity:1; stop-color:#7F8FA6"/>
   <stop offset="1" style="stop-opacity:1; stop-color:#718093"/>
  </linearGradient>
  <linearGradient id="id6" gradientUnits="userSpaceOnUse" xlink:href="#id2" x1="159.06" y1="182.19" x2="186.93" y2="170.25">
  </linearGradient>
  <linearGradient id="id7" gradientUnits="userSpaceOnUse" xlink:href="#id5" x1="125.89" y1="53.38" x2="142.22" y2="69.71">
  </linearGradient>
 </defs>
 <g id="Слой_x0020_1">
  <metadata id="CorelCorpID_0Corel-Layer"/>
  <g id="_2220649921120">
   <path class="fil0" d="M125 0c69.04,0 125,55.96 125,125 0,69.04 -55.96,125 -125,125 -69.04,0 -125,-55.96 -125,-125 0,-69.04 55.96,-125 125,-125z"/>
   <path class="fil1" d="M64.77 50l57.74 0c12.7,0 23.09,10.39 23.09,23.09l0 92.38c0,6.35 -5.19,11.55 -11.54,11.55l-69.29 0c-6.35,0 -11.54,-5.2 -11.54,-11.55l0 -103.92c0,-6.35 5.19,-11.55 11.54,-11.55z"/>
   <path class="fil2" d="M122.51 50l0 0c12.7,0 23.09,10.39 23.09,23.09l0 0.01 0 5.62c-0.07,-3.07 -2.55,-5.55 -5.62,-5.62l-5.92 0c-6.36,0 -11.55,-5.2 -11.55,-11.55l0 -5.92c-0.08,-3.13 -2.63,-5.63 -5.77,-5.63l5.77 0z"/>
   <path class="fil3" d="M115.39 96.92c-1.11,0 -2,-0.89 -2,-2 0,-1.1 0.89,-2 2,-2l3.06 0c1.1,0 2,0.9 2,2 0,1.11 -0.9,2 -2,2l-3.06 0zm-14.26 -9.23c-1.11,0 -2.01,-0.9 -2.01,-2.01 0,-1.1 0.9,-2 2.01,-2l17.32 0c1.1,0 2,0.9 2,2 0,1.11 -0.9,2.01 -2,2.01l-17.32 0zm0 18.47c-1.11,0 -2.01,-0.89 -2.01,-2 0,-1.1 0.9,-2 2.01,-2l17.32 0c1.1,0 2,0.9 2,2 0,1.11 -0.9,2 -2,2l-17.32 0zm0 -9.24c-1.11,0 -2.01,-0.89 -2.01,-2 0,-1.1 0.9,-2 2.01,-2l7.71 0c1.11,0 2,0.9 2,2 0,1.11 -0.89,2 -2,2l-7.71 0z"/>
   <path class="fil3" d="M70.8 132.61c-0.78,-0.78 -0.78,-2.05 0,-2.83 0.78,-0.78 2.05,-0.78 2.83,0l5.51 5.51 12.44 -12.44c0.78,-0.78 2.05,-0.78 2.83,0 0.78,0.78 0.78,2.05 0,2.83l-13.86 13.86c-0.78,0.78 -2.04,0.78 -2.82,0l-6.93 -6.93zm4.64 -12.79c1.1,0 2,0.89 2,2 0,1.1 -0.9,2 -2,2l-9.55 0 0 19.09 9.55 0c1.1,0 2,0.9 2,2 0,1.11 -0.9,2 -2,2l-11.55 0c-1.1,0 -2,-0.89 -2,-2l0 -23.09c0,-1.11 0.9,-2 2,-2l11.55 0z"/>
   <path class="fil3" d="M77.35 102.3c-0.78,0.78 -2.05,0.78 -2.83,0 -0.78,-0.78 -0.78,-2.05 0,-2.83l4.36 -4.36 -4.36 -4.36c-0.78,-0.78 -0.78,-2.05 0,-2.83 0.78,-0.78 2.05,-0.78 2.83,0l4.36 4.36 4.36 -4.36c0.78,-0.78 2.05,-0.78 2.83,0 0.78,0.78 0.78,2.05 0,2.83l-4.36 4.36 4.36 4.36c0.78,0.78 0.78,2.05 0,2.83 -0.78,0.78 -2.05,0.78 -2.83,0l-4.36 -4.36 -4.36 4.36zm-1.91 -20.93c1.1,0 2,0.9 2,2 0,1.11 -0.9,2 -2,2l-9.55 0 0 19.1 9.55 0c1.1,0 2,0.89 2,2 0,1.1 -0.9,2 -2,2l-11.55 0c-1.1,0 -2,-0.9 -2,-2l0 -23.1c0,-1.1 0.9,-2 2,-2l11.55 0z"/>
   <path class="fil4" d="M144.42 163.97l16.33 -16.33 32.66 32.66c4.49,4.49 4.49,11.84 0,16.33l0 0c-4.49,4.49 -11.84,4.49 -16.33,0l-32.66 -32.66z"/>
   <path class="fil5" d="M131.17 98.81c19.13,0 34.64,15.51 34.64,34.65 0,19.13 -15.51,34.64 -34.64,34.64 -19.13,0 -34.64,-15.51 -34.64,-34.64 0,-19.14 15.51,-34.65 34.64,-34.65z"/>
   <path class="fil6" d="M131.17 104.59c15.94,0 28.87,12.92 28.87,28.87 0,15.94 -12.93,28.86 -28.87,28.86 -15.94,0 -28.87,-12.92 -28.87,-28.86 0,-15.95 12.93,-28.87 28.87,-28.87z"/>
   <path class="fil7" d="M130.11 150.22c-1.65,0 -3,-1.34 -3,-3 0,-1.65 1.35,-3 3,-3l11.74 0c1.66,0 3,1.35 3,3 0,1.66 -1.34,3 -3,3l-11.74 0zm-14.24 -27.71c-1.66,0 -3,-1.35 -3,-3 0,-1.66 1.34,-3 3,-3l25.98 0c1.66,0 3,1.34 3,3 0,1.65 -1.34,3 -3,3l-25.98 0zm0 13.85c-1.66,0 -3,-1.34 -3,-3 0,-1.66 1.34,-3 3,-3l25.98 0c1.66,0 3,1.34 3,3 0,1.66 -1.34,3 -3,3l-25.98 0zm0 13.86c-1.66,0 -3,-1.34 -3,-3 0,-1.65 1.34,-3 3,-3l4.07 0c1.66,0 3,1.35 3,3 0,1.66 -1.34,3 -3,3l-4.07 0z"/>
  </g>
 </g>
</svg>
