<?xml version="1.0" encoding="UTF-8"?>
<!DOCTYPE svg PUBLIC "-//W3C//DTD SVG 1.1//EN" "http://www.w3.org/Graphics/SVG/1.1/DTD/svg11.dtd">
<!-- Creator: CorelDRAW -->
<svg xmlns="http://www.w3.org/2000/svg" xml:space="preserve" width="250px" height="250px" version="1.1" style="shape-rendering:geometricPrecision; text-rendering:geometricPrecision; image-rendering:optimizeQuality; fill-rule:evenodd; clip-rule:evenodd"
viewBox="0 0 250 250"
 xmlns:xlink="http://www.w3.org/1999/xlink"
 xmlns:xodm="http://www.corel.com/coreldraw/odm/2003">
 <defs>
  <style type="text/css">
   <![CDATA[
    .fil1 {fill:url(#id0)}
    .fil3 {fill:url(#id1)}
    .fil4 {fill:url(#id2)}
    .fil0 {fill:url(#id3)}
    .fil2 {fill:url(#id4)}
   ]]>
  </style>
  <linearGradient id="id0" gradientUnits="userSpaceOnUse" x1="92" y1="85.06" x2="167.57" y2="181.25">
   <stop offset="0" style="stop-opacity:1; stop-color:#273C75"/>
   <stop offset="1" style="stop-opacity:1; stop-color:#192A56"/>
  </linearGradient>
  <linearGradient id="id1" gradientUnits="objectBoundingBox" x1="3.24387%" y1="26.0454%" x2="96.7561%" y2="73.9546%">
   <stop offset="0" style="stop-opacity:1; stop-color:#E84118"/>
   <stop offset="1" style="stop-opacity:1; stop-color:#C23616"/>
  </linearGradient>
  <linearGradient id="id2" gradientUnits="userSpaceOnUse" x1="146.65" y1="127.78" x2="168.92" y2="150.05">
   <stop offset="0" style="stop-opacity:1; stop-color:#FBC531"/>
   <stop offset="1" style="stop-opacity:1; stop-color:#E1B12C"/>
  </linearGradient>
  <linearGradient id="id3" gradientUnits="userSpaceOnUse" x1="45.27" y1="-61.54" x2="204.73" y2="311.54">
   <stop offset="0" style="stop-opacity:1; stop-color:#A29BFE"/>
   <stop offset="1" style="stop-opacity:1; stop-color:#6C5CE7"/>
  </linearGradient>
  <linearGradient id="id4" gradientUnits="userSpaceOnUse" xlink:href="#id2" x1="82" y1="67.82" x2="157.57" y2="164">
  </linearGradient>
 </defs>
 <g id="Слой_x0020_1">
  <metadata id="CorelCorpID_0Corel-Layer"/>
  <path class="fil0" d="M125 0c69.04,0 125,55.96 125,125 0,69.04 -55.96,125 -125,125 -69.04,0 -125,-55.96 -125,-125 0,-69.04 55.96,-125 125,-125z"/>
  <path class="fil1" d="M69.78 78.16l120 0c5.5,0 10,4.5 10,10l0 90c0,5.5 -4.5,10 -10,10l-120 0c-5.5,0 -10,-4.5 -10,-10l0 -90c0,-5.5 4.5,-10 10,-10z"/>
  <path class="fil2" d="M59.78 60.91l120 0c5.5,0 10,4.5 10,10l0 90c0,5.5 -4.5,10 -10,10l-120 0c-5.5,0 -10,-4.5 -10,-10l0 -90c0,-5.5 4.5,-10 10,-10z"/>
  <path class="fil3" d="M129.84 60.91l49.94 0c5.5,0 10,4.5 10,10l0 90c0,5.5 -4.5,10 -10,10l-68.73 0c4.93,-0.62 8.73,-4.83 8.73,-10l0 -89.92c0,-5.52 4.48,-10 10,-10l0.06 -0.08z"/>
  <path class="fil3" d="M80.02 79.14c8.7,0 15.75,7.05 15.75,15.75 0,8.7 -7.05,15.75 -15.75,15.75 -8.7,0 -15.75,-7.05 -15.75,-15.75 0,-8.7 7.05,-15.75 15.75,-15.75z"/>
  <path class="fil4" d="M157.78 123.16c8.7,0 15.75,7.05 15.75,15.75 0,8.7 -7.05,15.75 -15.75,15.75 -8.69,0 -15.75,-7.05 -15.75,-15.75 0,-8.7 7.06,-15.75 15.75,-15.75z"/>
 </g>
</svg>
